<?xml version="1.0" encoding="utf-8"?>
<svg version="1.1" xmlns:xlink="http://www.w3.org/1999/xlink" width="6px" height="11px" xmlns="http://www.w3.org/2000/svg">
  <g transform="matrix(1 0 0 1 -3761 -279 )">
    <path d="M 0.139246323529412 0.1484375  C 0.218520220588235 0.0703124999999999  0.323069852941176 0.0312499999999999  0.426470588235294 0.03125  C 0.529871323529412 0.03125  0.634420955882353 0.0703125  0.713694852941176 0.1484375  L 5.86075367647059 5.216796875  C 6.01930147058824 5.373046875  6.01930147058824 5.626953125  5.86075367647059 5.783203125  L 0.713694852941176 10.8515625  C 0.555147058823529 11.0078125  0.297794117647059 11.0078125  0.139246323529412 10.8515625  C -0.0193014705882351 10.6953125  -0.0193014705882351 10.44140625  0.139246323529412 10.28515625  L 4.99908088246783 5.5  L 0.139246323529412 0.71484375  C -0.0193014705882351 0.55859375  -0.0193014705882351 0.3046875  0.139246323529412 0.1484375  Z " fill-rule="nonzero" fill="#999999" stroke="none" transform="matrix(1 0 0 1 3761 279 )" />
  </g>
</svg>