<?xml version="1.0" encoding="utf-8"?>
<svg version="1.1" xmlns:xlink="http://www.w3.org/1999/xlink" width="8px" height="13px" xmlns="http://www.w3.org/2000/svg">
  <g transform="matrix(1 0 0 1 -2285 -431 )">
    <path d="M 7.81433823529412 0.175426136363636  C 7.70863970588235 0.0830965909090908  7.56924019607843 0.0369318181818181  7.43137254901961 0.0369318181818182  C 7.29350490196078 0.0369318181818182  7.15410539215686 0.0830965909090909  7.0484068627451 0.175426136363636  L 0.185661764705882 6.16530539772727  C -0.0257352941176467 6.34996448863636  -0.0257352941176467 6.65003551136364  0.185661764705882 6.83469460227273  L 7.0484068627451 12.8245738636364  C 7.25980392156863 13.0092329545455  7.60294117647059 13.0092329545455  7.81433823529412 12.8245738636364  C 8.02573529411765 12.6399147727273  8.02573529411765 12.33984375  7.81433823529412 12.1551846590909  L 1.33455882337622 6.5  L 7.81433823529412 0.844815340909091  C 8.02573529411765 0.66015625  8.02573529411765 0.360085227272727  7.81433823529412 0.175426136363636  Z " fill-rule="nonzero" fill="#000000" stroke="none" transform="matrix(1 0 0 1 2285 431 )" />
  </g>
</svg>