<?xml version="1.0" standalone="no"?><!DOCTYPE svg PUBLIC "-//W3C//DTD SVG 1.1//EN" "http://www.w3.org/Graphics/SVG/1.1/DTD/svg11.dtd"><svg t="1610699941740" class="icon" viewBox="0 0 1024 1024" version="1.1" xmlns="http://www.w3.org/2000/svg" p-id="2694" width="48" height="48" xmlns:xlink="http://www.w3.org/1999/xlink"><defs><style type="text/css"></style></defs><path d="M499.3024 904.192H189.696c-24.6272 0-44.6464-20.0192-44.6464-44.6464V143.7696c0-24.6272 20.0192-44.6464 44.6464-44.6464h582.4512c24.6272 0 44.6464 20.0192 44.6464 44.6464v365.056h-51.2V150.3232H196.2496V852.992h303.0016v51.2z" fill="#5B90EF" p-id="2695"></path><path d="M273.4592 293.8368h357.7856v51.2H273.4592zM273.4592 449.1776h256.768v51.2H273.4592z" fill="#5B90EF" p-id="2696"></path><path d="M721.3056 745.3184m-163.072 0a163.072 163.072 0 1 0 326.144 0 163.072 163.072 0 1 0-326.144 0Z" fill="#DCEDFF" p-id="2697"></path><path d="M721.3056 933.9904c-104.0384 0-188.672-84.6336-188.672-188.672s84.6336-188.672 188.672-188.672 188.672 84.6336 188.672 188.672-84.6848 188.672-188.672 188.672z m0-326.0928c-75.776 0-137.472 61.6448-137.472 137.472s61.6448 137.472 137.472 137.472 137.472-61.6448 137.472-137.472-61.696-137.472-137.472-137.472z" fill="#5B90EF" p-id="2698"></path><path d="M692.8896 817.4592c-0.9728 0-1.8944-0.0512-2.8672-0.1536a25.7536 25.7536 0 0 1-17.2032-9.5232l-47.7184-60.16 40.0896-31.7952 31.744 39.9872 94.3104-75.4688 32 39.9872-114.3808 91.4944a25.344 25.344 0 0 1-15.9744 5.632z" fill="#5B90EF" p-id="2699"></path></svg>