<?xml version="1.0" standalone="no"?><!DOCTYPE svg PUBLIC "-//W3C//DTD SVG 1.1//EN" "http://www.w3.org/Graphics/SVG/1.1/DTD/svg11.dtd"><svg t="1636004327813" class="icon" viewBox="0 0 1025 1024" version="1.1" xmlns="http://www.w3.org/2000/svg" p-id="3426" width="32.03125" height="32" xmlns:xlink="http://www.w3.org/1999/xlink"><defs><style type="text/css"></style></defs><path d="M352.376267 760.009763C350.834511 761.551537 344.542685 764.999821 342.477506 765.457002L180.527334 801.308566 222.635043 843.416258 258.486607 681.466086C258.968311 679.290121 262.315961 673.185192 263.933828 671.567325L802.537066 132.964087C816.326621 119.17455 816.326621 96.817276 802.537066 83.027721 788.747511 69.238184 766.390237 69.238184 752.6007 83.027721L213.997462 621.630958C202.867871 632.76055 192.923842 650.894883 189.535232 666.202041L153.683668 828.152232C148.102938 853.36177 170.581839 875.840671 195.791378 870.259924L357.74155 834.40836C372.932502 831.045473 391.255217 821.003546 402.312651 809.94613L940.915871 271.34291C954.705426 257.553355 954.705426 235.196081 940.915871 221.406543 927.126334 207.616989 904.769059 207.616989 890.979505 221.406543L352.376267 760.009763ZM414.64915 72.685568 51.729426 72.685568C23.157654 72.685568 0 95.845588 0 124.414994L0 972.214166C0 1000.785938 23.16002 1023.943592 51.729426 1023.943592L899.528598 1023.943592C928.10037 1023.943592 951.258041 1000.783572 951.258041 972.214166L951.258041 609.294442 951.258041 427.83458C951.258041 408.333224 935.449053 392.524235 915.947697 392.524235 896.446323 392.524235 880.637352 408.333224 880.637352 427.83458L880.637352 609.294442 880.637352 972.214166C880.637352 961.782466 889.096033 953.322902 899.528598 953.322902L51.729426 953.322902C62.161143 953.322902 70.62069 961.781601 70.62069 972.214166L70.62069 124.414994C70.62069 134.846711 62.162008 143.306258 51.729426 143.306258L414.64915 143.306258 596.109012 143.306258C615.610386 143.306258 631.419357 127.497269 631.419357 107.995913 631.419357 88.494539 615.610386 72.685568 596.109012 72.685568L414.64915 72.685568ZM1008.873949 203.384814C1029.040658 183.218105 1029.030682 150.678581 1008.912031 130.559929L951.147855 72.795754 893.383662 15.031561C873.350038-5.002063 840.660092-5.031671 820.558777 15.069643L752.6007 83.027721C738.811145 96.817276 738.811145 119.17455 752.6007 132.964087 766.390237 146.753642 788.747511 146.753642 802.537066 132.964087L870.495144 65.006009C862.997098 72.504055 850.972531 72.49318 843.447296 64.967927L901.211489 122.73212 958.975665 180.496296C951.522074 173.042706 951.518349 160.867699 958.937582 153.448448L890.979505 221.406543C877.18995 235.196081 877.18995 257.553355 890.979505 271.34291 904.769059 285.132447 927.126334 285.132447 940.915871 271.34291L1008.873949 203.384814Z" p-id="3427" fill="#3991fa"></path></svg>