<?xml version="1.0" standalone="no"?><!DOCTYPE svg PUBLIC "-//W3C//DTD SVG 1.1//EN" "http://www.w3.org/Graphics/SVG/1.1/DTD/svg11.dtd"><svg t="1628840124672" class="icon" viewBox="0 0 1024 1024" version="1.1" xmlns="http://www.w3.org/2000/svg" p-id="3207" width="48" height="48" xmlns:xlink="http://www.w3.org/1999/xlink"><defs><style type="text/css"></style></defs><path d="M748.8 220.16h-473.6c-11.264 0-20.48 9.216-20.48 20.48s9.216 20.48 20.48 20.48h473.6c11.264 0 20.48-9.216 20.48-20.48s-9.216-20.48-20.48-20.48zM748.8 348.16h-473.6c-11.264 0-20.48 9.216-20.48 20.48s9.216 20.48 20.48 20.48h473.6c11.264 0 20.48-9.216 20.48-20.48s-9.216-20.48-20.48-20.48z" fill="#3299ff" p-id="3208"></path><path d="M875.52 87.04H148.48c-33.792 0-61.44 27.648-61.44 61.44v727.04c0 33.792 27.648 61.44 61.44 61.44h261.12c11.3152 0 20.48-9.1648 20.48-20.48s-9.1648-20.48-20.48-20.48H148.48c-11.264 0-20.48-9.216-20.48-20.48V148.48c0-11.264 9.216-20.48 20.48-20.48h727.04c11.264 0 20.48 9.216 20.48 20.48v353.28c0 11.3152 9.1648 20.48 20.48 20.48s20.48-9.1648 20.48-20.48V148.48c0-33.792-27.648-61.44-61.44-61.44z" fill="#3299ff" p-id="3209"></path><path d="M936.3968 910.5408c-20.3776-61.8496-68.096-111.2576-128.768-134.0416 25.856-21.6064 42.3424-54.0672 42.3424-90.4192 0-65.024-52.736-117.76-117.76-117.76s-117.76 52.736-117.76 117.76c0 36.352 16.4864 68.8128 42.3424 90.4192-60.7232 22.7328-108.3904 72.192-128.768 134.0416-4.3008 13.0048 5.2736 26.4192 18.944 26.4192h1.024c8.7552 0 16.3328-5.7344 19.0976-14.08C590.1312 853.8112 655.4112 803.84 732.16 803.84s142.0288 49.9712 165.12 119.04c2.7648 8.2944 10.3424 14.08 19.0976 14.08h1.024c13.7216 0 23.2448-13.4144 18.9952-26.4192zM655.36 686.08c0-42.3424 34.4576-76.8 76.8-76.8s76.8 34.4576 76.8 76.8-34.4576 76.8-76.8 76.8-76.8-34.4576-76.8-76.8z" fill="#3299ff" p-id="3210"></path></svg>