<?xml version="1.0" standalone="no"?><!DOCTYPE svg PUBLIC "-//W3C//DTD SVG 1.1//EN" "http://www.w3.org/Graphics/SVG/1.1/DTD/svg11.dtd"><svg t="1636015315288" class="icon" viewBox="0 0 1024 1024" version="1.1" xmlns="http://www.w3.org/2000/svg" p-id="3832" width="48" height="48" xmlns:xlink="http://www.w3.org/1999/xlink"><defs><style type="text/css"></style></defs><path d="M768 465.454545l-139.636364 0c-12.846545 0-23.272727 10.426182-23.272727 23.272727 0 12.846545 10.426182 23.272727 23.272727 23.272727l139.636364 0c12.846545 0 23.272727-10.426182 23.272727-23.272727C791.272727 475.880727 780.846545 465.454545 768 465.454545zM372.363636 256l46.545455 0 0 0 209.454545 0 0 0 46.545455 0C687.755636 256 698.181818 245.573818 698.181818 232.727273L698.181818 162.909091C698.181818 150.062545 687.755636 139.636364 674.909091 139.636364l-52.968727 0c-14.429091-40.587636-52.782545-69.818182-98.304-69.818182-45.521455 0-83.874909 29.230545-98.304 69.818182L372.363636 139.636364C359.517091 139.636364 349.090909 150.062545 349.090909 162.909091L349.090909 232.727273C349.090909 245.573818 359.517091 256 372.363636 256zM407.272727 186.181818l60.509091 0C466.990545 182.318545 465.454545 178.688 465.454545 174.545455c0-32.116364 26.065455-58.181818 58.181818-58.181818 32.116364 0 58.181818 26.065455 58.181818 58.181818 0 4.142545-1.536 7.773091-2.327273 11.636364l60.509091 0C646.423273 186.181818 651.636364 191.394909 651.636364 197.818182S646.423273 209.454545 640 209.454545l-232.727273 0C400.849455 209.454545 395.636364 204.241455 395.636364 197.818182S400.849455 186.181818 407.272727 186.181818zM768 628.363636l-139.636364 0c-12.846545 0-23.272727 10.426182-23.272727 23.272727 0 12.846545 10.426182 23.272727 23.272727 23.272727l139.636364 0c12.846545 0 23.272727-10.426182 23.272727-23.272727C791.272727 638.789818 780.846545 628.363636 768 628.363636zM884.363636 162.909091l-139.636364 0 0 46.545455 116.363636 0C899.630545 209.454545 930.909091 240.733091 930.909091 279.272727l0 581.818182c0 38.539636-31.278545 69.818182-69.818182 69.818182l-698.181818 0C124.369455 930.909091 93.090909 899.630545 93.090909 861.090909L93.090909 279.272727c0-38.539636 31.278545-69.818182 69.818182-69.818182l139.636364 0 0-46.545455L139.636364 162.909091c-51.432727 0-93.090909 41.658182-93.090909 93.090909L46.545455 884.363636c0 51.432727 41.658182 93.090909 93.090909 93.090909l744.727273 0c51.432727 0 93.090909-41.658182 93.090909-93.090909L977.454545 256C977.454545 204.567273 935.796364 162.909091 884.363636 162.909091zM446.929455 600.669091C472.250182 579.304727 488.727273 547.746909 488.727273 512c0-64.279273-52.084364-116.363636-116.363636-116.363636-64.279273 0-116.363636 52.084364-116.363636 116.363636 0 35.746909 16.477091 67.304727 41.797818 88.669091C245.573818 627.805091 209.454545 681.751273 209.454545 744.727273c0 5.306182 0.884364 10.379636 1.582545 15.499636C210.152727 762.693818 209.454545 765.253818 209.454545 768 209.454545 780.846545 219.880727 791.272727 232.727273 791.272727c12.846545 0 23.272727-10.426182 23.272727-23.272727l2.327273 0C256.837818 760.459636 256 752.686545 256 744.727273c0-64.279273 52.084364-116.363636 116.363636-116.363636 64.279273 0 116.363636 52.084364 116.363636 116.363636 0 7.959273-0.837818 15.732364-2.327273 23.272727l2.327273 0c0 12.846545 10.426182 23.272727 23.272727 23.272727 12.846545 0 23.272727-10.426182 23.272727-23.272727 0-2.746182-0.698182-5.306182-1.582545-7.773091C534.388364 755.106909 535.272727 750.033455 535.272727 744.727273 535.272727 681.751273 499.153455 627.805091 446.929455 600.669091zM372.363636 581.818182c-38.539636 0-69.818182-31.278545-69.818182-69.818182 0-38.539636 31.278545-69.818182 69.818182-69.818182 38.539636 0 69.818182 31.278545 69.818182 69.818182C442.181818 550.539636 410.903273 581.818182 372.363636 581.818182z" p-id="3833" fill="#3991fa"></path></svg>