<?xml version="1.0" standalone="no"?><!DOCTYPE svg PUBLIC "-//W3C//DTD SVG 1.1//EN" "http://www.w3.org/Graphics/SVG/1.1/DTD/svg11.dtd"><svg t="1632553047243" class="icon" viewBox="0 0 1024 1024" version="1.1" xmlns="http://www.w3.org/2000/svg" p-id="2687" width="64" height="64" xmlns:xlink="http://www.w3.org/1999/xlink"><defs><style type="text/css"></style></defs><path d="M832 128H192a64.19 64.19 0 0 0-64 64v400.62l224-221.87 128 128 201.37-201.38L576 192h256v254a288.52 288.52 0 0 1 64 43.4V192a64.19 64.19 0 0 0-64-64zM647.75 421.51A289 289 0 0 1 828 444L726.63 342.63zM453.17 562.42L352 461.25 128 682.84V832a64.19 64.19 0 0 0 64 64h297.36a288.07 288.07 0 0 1-36.19-333.58z" p-id="2688" fill="#3991FA"></path><path d="M704 448c-141.38 0-256 114.62-256 256s114.62 256 256 256 256-114.62 256-256-114.62-256-256-256z m160 197.55l-0.28 0.28-57.81 57.91-135.8 136L512 681.37l45.18-45.25 112.94 113.14 129.71-129.95 0.17-0.17 50.82-50.91 12.9 12.92 0.28 0.28 32 32.06z" p-id="2689" fill="#3991FA"></path></svg>